# xmcd
#
# Track frame offsets:
# 150
# 13560
# 27683
# 39156
# 52259
# 62056
# 79017
# 93920
# 108371
# 130049
# 151160
# 168178
# 184015
# 196746
# 208646
# 221049
#
# Disc length: 3158 seconds
#
#
# Revision: 0
# Processed by: cddbd v1.4PL0 Copyright (c) Steve Scherf et al.
# Submitted via: FreeRIP 2.35 
#
DISCID=cf0c5410
DTITLE=Various Artist - Bluegrass Crusade 1973-2003
DYEAR=2003
DGENRE=Bluegrass
TTITLE0=Brilliance
TTITLE1=Blueridge Cabin Home
TTITLE2=Take a Whiff
TTITLE3=Acorn Hill
TTITLE4=Nobody's Love
TTITLE5=Hickory Wind
TTITLE6=I Cried Again
TTITLE7=Friend of the Devil
TTITLE8=The Staten Island Hornpipe, Welch Morris Dance, Texas Medley
TTITLE9=Willie the Weeper
TTITLE10=White House Blues
TTITLE11=Will You Miss Me
TTITLE12=Hamilton County
TTITLE13=Georgia Mail
TTITLE14=Ground Hog
TTITLE15=I'll Fly Away, Cryin' Holy
EXTD=
EXTT0=
EXTT1=
EXTT2=
EXTT3=
EXTT4=
EXTT5=
EXTT6=
EXTT7=
EXTT8=
EXTT9=
EXTT10=
EXTT11=
EXTT12=
EXTT13=
EXTT14=
EXTT15=
PLAYORDER=
